<svg width="448.011" height="448.011" xmlns="http://www.w3.org/2000/svg">

    <g>
        <title>Layer 1</title>
        <g id="svg_1" transform="rotate(45 291.505615234375,156.50569152832028) matrix(0,-0.952856291998517,0.9796960894127329,0,1.1142241898552343,423.8855896953916) ">
            <g id="svg_2">
                <g id="svg_3">
                    <path id="svg_4" fill="#059669" d="m495.3342,281.86697l-416,-192c-6.624,-3.008 -14.528,-1.216 -19.136,4.48c-4.64,5.696 -4.8,13.792 -0.384,19.648l136.8,182.4l-136.8,182.4c-4.416,5.856 -4.256,13.984 0.352,19.648c3.104,3.872 7.744,5.952 12.448,5.952c2.272,0 4.544,-0.48 6.688,-1.472l416,-192c5.696,-2.624 9.312,-8.288 9.312,-14.528s-3.616,-11.904 -9.28,-14.528z"/>
                </g>
            </g>
            <g id="svg_5"/>
            <g id="svg_6"/>
            <g id="svg_7"/>
            <g id="svg_8"/>
            <g id="svg_9"/>
            <g id="svg_10"/>
            <g id="svg_11"/>
            <g id="svg_12"/>
            <g id="svg_13"/>
            <g id="svg_14"/>
            <g id="svg_15"/>
            <g id="svg_16"/>
            <g id="svg_17"/>
            <g id="svg_18"/>
            <g id="svg_19"/>
        </g>
    </g>
</svg>
